<svg width="74" height="32" viewBox="0 0 74 32" fill="none" xmlns="http://www.w3.org/2000/svg">
<path d="M1.4788 0.160082C-0.267153 0.947378 0.0128583 3.53069 1.89058 3.94894C3.74359 4.35899 5.03659 2.21033 3.86713 0.684946C3.38946 0.0616701 2.25295 -0.192561 1.4788 0.160082Z" fill="#0D9676"/>
<path d="M8.9788 0.160082C7.23285 0.947378 7.51286 3.53069 9.39058 3.94894C11.2436 4.35899 12.5366 2.21033 11.3671 0.684946C10.8895 0.0616701 9.75295 -0.192561 8.9788 0.160082Z" fill="#0D9676"/>
<path d="M16.4788 0.160082C14.7328 0.947378 15.0129 3.53069 16.8906 3.94894C18.7436 4.35899 20.0366 2.21033 18.8671 0.684946C18.3895 0.0616701 17.2529 -0.192561 16.4788 0.160082Z" fill="#0D9676" fill-opacity="0.5"/>
<path d="M23.9788 0.160082C22.2328 0.947378 22.5129 3.53069 24.3906 3.94894C26.2436 4.35899 27.5366 2.21033 26.3671 0.684946C25.8895 0.0616701 24.7529 -0.192561 23.9788 0.160082Z" fill="#0D9676" fill-opacity="0.1"/>
<path d="M0 18.8054V32.0007H2.06023H4.12045V18.8054V5.61014H2.06023H0V18.8054Z" fill="#0D9676"/>
<path d="M11.0327 7.66368L11.0579 9.72571L16.2884 9.76814L21.5104 9.81057L14.9597 20.6723C11.3522 26.6462 8.34179 31.6358 8.27451 31.7631L8.14838 32.0007H18.3738H28.5909V29.9217V27.8427H22.0654C16.877 27.8427 15.5484 27.8173 15.582 27.7324C15.5988 27.6815 18.5841 22.7258 22.2 16.7264C25.8159 10.727 28.8011 5.77137 28.8179 5.71197C28.8516 5.6356 27.0436 5.61014 19.9379 5.61014H11.0159L11.0327 7.66368Z" fill="#0D9676"/>
<path d="M40.4477 5.72887C35.007 6.69624 30.8614 10.676 29.6757 16.073C29.457 17.0658 29.3645 19.4163 29.5075 20.5025C30.0036 24.3041 32.0807 27.6475 35.3266 29.8368C36.6889 30.7617 38.3539 31.4491 40.0693 31.8055C41.1373 32.0176 43.8786 32.0176 44.9382 31.8055C46.6284 31.4576 48.3018 30.7617 49.7734 29.7944L50.7068 29.1834V24.1429V19.1024H47.9907H45.2745L44.2655 20.9438L43.2564 22.7937L44.8793 22.8191L46.5023 22.8361V24.8642V26.8838L46.023 27.1044C44.3327 27.8596 42.1968 28.0463 40.3973 27.5966C35.8143 26.4595 32.8711 21.9027 33.6784 17.21C34.3259 13.4509 37.4541 10.3875 41.1961 9.84444C42.6845 9.6323 44.6439 9.87839 45.9473 10.4384C46.1743 10.5403 46.3761 10.6082 46.393 10.5827C46.4434 10.5403 48.1841 6.9593 48.1841 6.91687C48.1841 6.7811 46.2248 6.08527 45.1989 5.84767C44.2234 5.62704 41.4232 5.55915 40.4477 5.72887Z" fill="#0D9676"/>
<path d="M54.5918 15.1735C54.617 24.703 54.617 24.7454 54.802 25.3903C55.7523 28.7676 58.2498 30.9994 61.975 31.8055C62.9925 32.0261 65.5909 32.0177 66.6 31.797C70.7709 30.8806 73.4702 28.0463 73.9159 24.109C73.9664 23.6847 74 19.7134 74 14.4946V5.61008H71.8977H69.7955V14.7153C69.7955 22.607 69.7786 23.8883 69.6693 24.3211C69.2825 25.8316 68.3911 26.7735 66.7682 27.3844C65.7927 27.7578 64.9434 27.8766 63.8418 27.8172C61.3948 27.6814 59.6793 26.5953 58.9309 24.7199L58.7375 24.2362L58.7123 14.9189L58.687 5.61008H56.6268H54.5666L54.5918 15.1735Z" fill="#0D9676"/>
</svg>
